<svg id="Calque_1" data-name="Calque 1" xmlns="http://www.w3.org/2000/svg" viewBox="0 0 132.88 103.36"><defs><style>.cls-1{fill:#fff;}</style></defs><path class="cls-1" d="M81.94,49.41c-3.28-6.83-7.6-18.39-1.66-25,5.88-5.74,14.74-3.2,20,1.85a19.5,19.5,0,0,1,4,5.07l-.42.67c-4.11-.12-7.82-1.11-11.57-1.9C90.55,29.77,89,29.36,87.7,29a4,4,0,0,0-3.11.08c-4.2,3.42-2.59,14.91-1.9,20l-.75.26Z" transform="translate(-13.02 -19.09)"/><path class="cls-1" d="M145.9,27.94c-.26,7.83-2,35.12-15.05,29.26C124.42,54.28,119.31,47,120.4,39.79l.77-.18C125.85,44.45,130,46.9,135,50.36c.06,0,0,0,0,0-.23,0-.87.13-.82.3s.73-.21,1.22-.79c2.32-2.74,4-6.82,5.44-10.29,1.58-3.82,2.95-7.8,4.31-11.8l.78.13Z" transform="translate(-13.02 -19.09)"/><circle class="cls-1" cx="105.26" cy="8.78" r="8.78"/><path class="cls-1" d="M100.49,70.77v15.9a9.94,9.94,0,1,1,0,19.88v15.91a25.85,25.85,0,1,0,0-51.69Z" transform="translate(-13.02 -19.09)"/><polygon class="cls-1" points="71.19 51.68 66.93 67.58 87.47 67.58 87.47 51.68 71.19 51.68"/><path class="cls-1" d="M68.31,70.77H31.57a15.9,15.9,0,0,0,15.9,15.9H64Z" transform="translate(-13.02 -19.09)"/><path class="cls-1" d="M58.72,106.55H13a15.9,15.9,0,0,0,15.9,15.91H54.46Z" transform="translate(-13.02 -19.09)"/><polygon class="cls-1" points="61.6 87.46 57.34 103.36 87.47 103.36 87.47 87.46 61.6 87.46"/><path class="cls-1" d="M106.7,35.4h0q-.36-.09-.75-.15c-.34-.06-.68-.12-1-.16l-.42,0c-.45,0-.91-.07-1.37-.07H84.06c-.65,4.57.23,11.07.59,13.75l.27,2.16H119A15.89,15.89,0,0,0,106.7,35.4Z" transform="translate(-13.02 -19.09)"/><path class="cls-1" d="M80.14,50.28Q75.94,41.54,75.4,35H47.47a15.91,15.91,0,0,0-15.9,15.91H80.43Z" transform="translate(-13.02 -19.09)"/><polygon class="cls-1" points="106.02 36.18 18.55 36.18 18.55 47.29 59.27 47.29 57.34 54.27 48.29 88.05 44.36 103.36 54.43 103.36 58.43 88.05 67.48 54.27 69.15 47.29 106.02 47.29 106.02 36.18"/></svg>